# xmcd CD database file generated by Grip 3.0.7
# 
# Track frame offsets:
#       150
#       14068
#       27800
#       41867
#       53982
#       69480
#       82808
#       110564
#       125566
#       139283
#       153045
#       181182
#       194923
#       209625
#       224144
#       239033
#       252969
#       267572
#       295191
#       308707
#       322800
#       337198
# 
# Disc length: 4689 seconds
# 
# Revision: 1
# Processed by: cddbd v1.5.2PL0 Copyright (c) Steve Scherf et al.
# Submitted via: Grip 3.0.7
# 
DISCID=62124f16
DTITLE=Lonnie Johnson - The Original Guitar Wizard: Hot Fingers  [CD2]
DYEAR=2004
DGENRE=Blues
TTITLE0=Deep Blues Sea Blues
TTITLE1=No More Women Blues
TTITLE2=I'm So Tired Of Living All Alone
TTITLE3=Crowing Rooster Blues
TTITLE4=Broken Levee Blues
TTITLE5=Careless Love
TTITLE6=Toothache Blues, Pts. 1 and 2
TTITLE7=Misty Mornin'
TTITLE8=Two Tone Stomp
TTITLE9=Have To Change Keys To Play These Blues
TTITLE10=It Feels So Good, Pts. 1 and 2
TTITLE11=Jet Black Blues
TTITLE12=Guitar Blues
TTITLE13=Blue Guitars
TTITLE14=Bullfrog Moan
TTITLE15=Sundown Blues
TTITLE16=The New Fallin' Rain Blues
TTITLE17=You Done Lost Your Good Thing Now, Pts. 1 and 2
TTITLE18=Hot Fingers
TTITLE19=Blues Room
TTITLE20=She's Making Whoopee In Hell Tonight
TTITLE21=Another Woman Booked Out And Bound To Go
EXTD=YEAR: 2004 ID3G: 0
EXTT0=
EXTT1=
EXTT2=
EXTT3=
EXTT4=
EXTT5=
EXTT6=
EXTT7=
EXTT8=
EXTT9=
EXTT10=
EXTT11=
EXTT12=
EXTT13=
EXTT14=
EXTT15=
EXTT16=
EXTT17=
EXTT18=
EXTT19=
EXTT20=
EXTT21=
PLAYORDER=
